<svg width="1536" height="1200" viewBox="0 0 1536 1200" xmlns="http://www.w3.org/2000/svg">
  <rect width="100%" height="100%" fill="none" />
  <!-- Brand Icon and EDAMAME Wordmark -->
  <g transform="translate(0, 1024) scale(0.1, -0.1)" fill="#000000">
    <!-- Icon Paths -->
    <path d="M10264 8803 c-11 -2 -75 -48 -142 -103 -147 -119 -229 -174 -347
    -233 -168 -85 -286 -115 -577 -147 -101 -11 -219 -28 -263 -36 -387 -74 -710
    -278 -945 -596 -68 -92 -116 -174 -231 -393 -65 -124 -84 -150 -164 -231 -137
    -139 -233 -196 -525 -314 -347 -140 -429 -197 -765 -536 -318 -319 -361 -346
    -692 -430 -368 -93 -584 -210 -839 -457 -196 -189 -371 -431 -510 -703 -71
    -139 -82 -179 -65 -234 16 -54 39 -79 153 -165 298 -223 641 -371 1023 -441
    139 -25 480 -31 625 -10 335 49 626 172 930 396 -86 -87 -129 -160 -161
    -276 -41 -149 -14 -337 66 -455 l33 -49 -197 -193 c-108 -107 -235 -231 -282
    -276 -84 -80 -86 -82 -103 -63 -26 28 -140 86 -221 111 -53 16 -95 21 -175 21
    -125 0 -194 -16 -310 -73 -68 -33 -101 -57 -167 -123 -67 -68 -89 -99 -126
    -176 -59 -123 -72 -181 -70 -309 1 -98 7 -130 49 -260 3 -11 -72 -61 -268
    -181 -267 -163 -273 -166 -287 -145 -8 11 -45 51 -82 88 -149 146 -358 201
    -563 148 -101 -26 -182 -69 -260 -141 -126 -115 -185 -239 -193 -404 -9 -170
    40 -303 158 -429 57 -61 66 -75 52 -80 -15 -4 -14 -4 2 -3 11 1 57 -18 103
    -41 183 -96 371 -96 554 -1 205 107 337 338 326 573 l-3 70 293 179 293 179
    47 -44 c138 -129 339 -193 523 -168 161 22 279 81 399 201 62 61 85 93 122
    170 57 117 72 178 73 299 0 120 -18 201 -65 296 l-38 74 32 26 c17 14 146 140
    286 279 l255 254 62 -30 c123 -59 264 -73 396 -40 90 24 134 45 213 104 32 25
    63 43 68 40 5 -4 6 -1 2 5 -3 6 7 26 23 44 93 107 143 242 142 388 0 113 -18
    188 -69 284 -42 80 -134 179 -207 221 -134 79 -309 104 -451 66z"/>
    <!-- EDAMAME Lettering Paths -->
    <path d="M3865 2928 c-3 -7 -4 -245 -3 -528 l3 -515 345 0 345 0 0 95 0 95
    -237 3 -238 2 0 120 0 120 195 0 c194 0 196 0 204 23 11 27 9 152 -2 164 -5 4
    -95 9 -200 10 l-192 3 -3 115 -3 115 238 2 238 3 3 93 3 92 -346 0 c-267 0
    -347 -3 -350 -12z"/>
    <path d="M4825 2928 c-3 -7 -4 -245 -3 -528 l3 -515 240 0 c265 0 301 5 422
    61 179 81 276 247 277 469 0 264 -136 440 -390 505 -66 17 -111 20 -311 20
    -178 0 -235 -3 -238 -12z m517 -203 c65 -23 130 -83 159 -147 21 -46 24 -68
    23 -168 0 -130 -11 -164 -71 -231 -20 -22 -60 -52 -87 -67 -46 -24 -63 -27
    -188 -30 l-138 -4 0 337 0 338 128 -6 c79 -3 145 -12 174 -22z"/>
    <path d="M6253 2928 c-5 -7 -27 -58 -47 -113 -239 -628 -336 -893 -336 -912 0
    -23 2 -23 110 -23 l111 0 18 43 c10 24 29 75 42 115 l23 72 211 0 210 0 40
    -112 40 -113 113 -3 c107 -3 112 -2 112 18 0 22 -367 1008 -383 1028 -6 8 -46
    12 -132 12 -86 0 -125 -4 -132 -12z m216 -456 c34 -90 61 -165 61 -167 0 -2
    -65 -5 -145 -7 l-144 -3 6 25 c6 26 75 223 113 324 l23 60 13 -35 c7 -19 40
    -107 73 -197z"/>
    <path d="M7122 2413 l3 -528 105 0 105 0 -3 343 c-2 188 -1 342 1 342 3 0 37
    -60 75 -132 38 -73 96 -178 129 -233 l60 -100 68 0 69 0 28 49 c16 27 73 133
    126 235 l97 186 5 -345 5 -345 95 0 95 0 0 525 0 525 -122 3 -123 3 -137 -276
    c-76 -151 -140 -275 -143 -274 -3 0 -66 123 -141 272 l-137 272 -131 3 -131 3
    2 -528z"/>
    <path d="M8781 2923 c-36 -69 -383 -1002 -379 -1021 3 -14 19 -17 102 -20 59
    -2 103 1 110 8 5 5 26 56 46 113 l37 102 214 3 214 2 40 -112 40 -113 113 -3
    c104 -2 112 -1 112 16 0 18 -329 906 -370 1000 l-19 42 -125 0 c-109 0 -126
    -2 -135 -17z m208 -423 c39 -107 69 -196 67 -197 -2 -2 -66 -2 -143 -1 l-139
    3 70 197 c39 108 72 196 73 194 2 -1 34 -90 72 -196z"/>
    <path d="M9632 2413 l3 -528 80 -3 c44 -2 90 0 103 3 l23 6 -3 339 c-2 187 0
    340 4 340 4 0 29 -42 54 -92 59 -118 182 -338 202 -360 21 -25 132 -25 154 0
    15 17 78 129 192 345 31 59 59 107 62 107 3 0 3 -134 0 -297 -3 -164 -3 -320
    0 -346 l7 -48 96 3 96 3 3 528 2 527 -124 0 -124 0 -140 -272 c-77 -150 -144
    -274 -148 -275 -5 -2 -68 115 -139 258 -72 144 -136 268 -143 275 -10 10 -46
    14 -138 14 l-124 0 2 -527z"/>
    <path d="M10995 2928 c-3 -7 -4 -245 -3 -528 l3 -515 345 0 345 0 0 95 0 95
    -237 3 -238 2 0 120 0 120 188 0 c133 0 192 4 200 12 15 15 16 164 2 173 -6 4
    -96 6 -200 5 l-190 -1 0 120 0 121 238 2 237 3 0 90 0 90 -343 3 c-269 2 -344
    0 -347 -10z"/>
  </g>
  <!-- Slogan -->
  <text x="50%" y="1100" text-anchor="middle" font-family="Arial, Helvetica, sans-serif" font-size="42" font-weight="bold" fill="#000000">HAVE A GREAT DAY!</text>
</svg>
